<svg width="80" height="80" viewBox="0 0 80 80" fill="none" xmlns="http://www.w3.org/2000/svg">
  <path d="M16 27.728V55.728" stroke="#BDBDBD" stroke-width="4" stroke-linecap="round" stroke-linejoin="round" />
  <path d="M32 27.728V55.728" stroke="#BDBDBD" stroke-width="4" stroke-linecap="round" stroke-linejoin="round" />
  <path d="M48 27.728V55.728" stroke="#BDBDBD" stroke-width="4" stroke-linecap="round" stroke-linejoin="round" />
  <path d="M64 27.728V55.728" stroke="#BDBDBD" stroke-width="4" stroke-linecap="round" stroke-linejoin="round" />
  <path d="M12 59.728C12 57.5189 13.7909 55.728 16 55.728H64C66.2091 55.728 68 57.5189 68 59.728V67.628C68 67.6833 67.9552 67.728 67.9 67.728H12.1C12.0448 67.728 12 67.6833 12 67.628V59.728Z" fill="#828282" stroke="#828282" stroke-width="4" stroke-linecap="round" stroke-linejoin="round" />
  <path d="M72 67.728H8" stroke="#4F4F4F" stroke-width="4" stroke-linecap="round" stroke-linejoin="round" />
  <path fill-rule="evenodd" clip-rule="evenodd" d="M72 25.3653C72 24.3804 71.3891 23.4989 70.4669 23.1531L42.809 12.7813C40.9979 12.1022 39.0021 12.1022 37.191 12.7813L9.53308 23.1531C8.61092 23.4989 8 24.3804 8 25.3653C8 26.6702 9.0578 27.728 10.3627 27.728H69.6373C70.9422 27.728 72 26.6702 72 25.3653Z" fill="#4F4F4F" />
  <path d="M9.53308 23.1531L8.83083 21.2804L9.53308 23.1531ZM70.4669 23.1531L71.1692 21.2804L70.4669 23.1531ZM42.809 12.7813L42.1067 14.654L42.809 12.7813ZM42.1067 14.654L69.7647 25.0257L71.1692 21.2804L43.5112 10.9087L42.1067 14.654ZM10.2353 25.0257L37.8933 14.654L36.4888 10.9087L8.83083 21.2804L10.2353 25.0257ZM69.6373 25.728H10.3627V29.728H69.6373V25.728ZM69.6373 29.728C72.0468 29.728 74 27.7747 74 25.3653H70C70 25.5656 69.8376 25.728 69.6373 25.728V29.728ZM6 25.3653C6 27.7747 7.95324 29.728 10.3627 29.728V25.728C10.1624 25.728 10 25.5656 10 25.3653H6ZM8.83083 21.2804C7.12807 21.9189 6 23.5467 6 25.3653H10C10 25.2141 10.0938 25.0788 10.2353 25.0257L8.83083 21.2804ZM69.7647 25.0257C69.9062 25.0788 70 25.2141 70 25.3653H74C74 23.5467 72.8719 21.9189 71.1692 21.2804L69.7647 25.0257ZM43.5112 10.9087C41.2474 10.0597 38.7526 10.0597 36.4888 10.9087L37.8933 14.654C39.2516 14.1446 40.7484 14.1446 42.1067 14.654L43.5112 10.9087Z" fill="#4F4F4F" />
</svg>